# xmcd
#
# Track frame offsets: 
#        150
#        15397
#        28357
#        39895
#        54842
#        66030
#        80440
#        91342
#        103642
#        118772
#        128980
#        144407
#        155055
#        170260
#        185202
#        196165
#        207090
#        221537
#
# Disc length: 3153 seconds
#
# Revision: 4
# Processed by: cddbd v1.5.2PL0 Copyright (c) Steve Scherf et al.
# Submitted via: ExactAudioCopy v0.95b4
#
DISCID=f50c4f12
DTITLE=Charles Trenet - Selection [CD1)
DYEAR=1997
DGENRE=French Classic Vocal
TTITLE0=La Mer
TTITLE1=La Romance de Paris
TTITLE2=Y'a  d'la Joie
TTITLE3=Menilmontant
TTITLE4=Debit de l'Eau, Debit de Lait
TTITLE5=Au Claire de la Lune
TTITLE6=Le Soleil a Rendez-Vous avec la Lune
TTITLE7=Mamzelle Clio
TTITLE8=Papa Pique et Maman Coud
TTITLE9=Un Rien me Fait Chanter
TTITLE10=Bonsoir Jolie Madame
TTITLE11=La Cigale et la Fourmi
TTITLE12=Swing Troubador
TTITLE13=Les Temps des Cerises
TTITLE14=Sur un Fil
TTITLE15=Devant la Mer
TTITLE16=Si vous amiez
TTITLE17=Ding! Dong!
EXTD=
EXTT0=
EXTT1=
EXTT2=
EXTT3=
EXTT4=
EXTT5=
EXTT6=
EXTT7=
EXTT8=
EXTT9=
EXTT10=
EXTT11=
EXTT12=
EXTT13=
EXTT14=
EXTT15=
EXTT16=
EXTT17=
PLAYORDER=
